<svg width="80" height="80" viewBox="0 0 80 80" fill="none" xmlns="http://www.w3.org/2000/svg">
<path d="M67.7052 42.1577L69.4309 35.718C71.4449 28.2011 72.4519 24.4427 71.6936 21.1901C71.0949 18.6219 69.7479 16.2889 67.8232 14.4862C65.3856 12.2032 61.6269 11.1961 54.1103 9.18194C46.5933 7.16777 42.8346 6.1607 39.5822 6.9191C37.0139 7.5179 34.6809 8.86484 32.8783 10.7896C30.9235 12.8766 29.9042 15.9319 28.3873 21.4854C28.1325 22.418 27.8638 23.4211 27.5742 24.5019L25.8485 30.9421C23.8343 38.459 22.8273 42.2173 23.5857 45.47C24.1845 48.0383 25.5314 50.3713 27.4561 52.174C29.8937 54.457 33.6522 55.464 41.1692 57.4783C47.9446 59.2937 51.6663 60.291 54.7166 59.9147C55.0506 59.8737 55.3762 59.816 55.6972 59.741C58.2652 59.1423 60.5983 57.7953 62.4009 55.8707C64.6839 53.433 65.6912 49.6747 67.7052 42.1577Z" stroke="#A8FF63" stroke-width="5"/>
<path d="M54.7167 59.9137C54.0217 62.042 52.7997 63.9673 51.1567 65.5063C48.7191 67.7893 44.9604 68.7963 37.4437 70.8107C29.9267 72.8247 26.1682 73.8317 22.9156 73.0733C20.3474 72.4747 18.0145 71.1277 16.2118 69.203C13.9287 66.7653 12.9216 63.007 10.9075 55.49L9.18201 49.0503C7.16785 41.5333 6.16078 37.775 6.91918 34.5223C7.51798 31.9542 8.86491 29.6213 10.7896 27.8186C13.2272 25.5355 16.9857 24.5284 24.5026 22.5143C25.9248 22.1332 27.2123 21.7882 28.3874 21.4844" stroke="#A8FF63" stroke-width="5"/>
<path d="M39.2563 33.3333L55.355 37.647" stroke="#A8FF63" stroke-width="5" stroke-linecap="round"/>
<path d="M36.6667 42.9917L46.3261 45.5797" stroke="#A8FF63" stroke-width="5" stroke-linecap="round"/>
</svg>
