<svg width="50" height="50" viewBox="0 0 50 50" fill="none" xmlns="http://www.w3.org/2000/svg">
<g clip-path="url(#clip0_7_473)">
<path d="M43.7185 3.23039C44.5277 3.23125 45.3035 3.55322 45.8756 4.12558C46.4476 4.69794 46.7692 5.47391 46.7696 6.28313V43.7185C46.7692 44.5277 46.4476 45.3037 45.8756 45.8761C45.3035 46.4484 44.5277 46.7704 43.7185 46.7712H6.28313C5.47377 46.7704 4.69779 46.4485 4.12548 45.8762C3.55317 45.3039 3.23125 44.5279 3.23039 43.7185V6.28313C3.23125 5.47377 3.55317 4.69779 4.12548 4.12548C4.69779 3.55317 5.47377 3.23125 6.28313 3.23039H43.7185ZM43.7185 0H6.28313C4.61675 0 3.01862 0.662 1.84031 1.84031C0.662 3.01862 0 4.61675 0 6.28313V43.7185C0 45.3849 0.662 46.983 1.84031 48.1614C3.01862 49.3397 4.61675 50.0016 6.28313 50.0016H43.7185C44.5436 50.0016 45.3605 49.8391 46.1227 49.5233C46.8849 49.2076 47.5775 48.7447 48.1608 48.1613C48.7441 47.5778 49.2068 46.8851 49.5223 46.1228C49.8379 45.3605 50.0002 44.5436 50 43.7185V6.28313C50.0002 5.4581 49.8379 4.64107 49.5223 3.87878C49.2068 3.11648 48.7441 2.42387 48.1608 1.84041C47.5775 1.25695 46.8849 0.794104 46.1227 0.478328C45.3605 0.162553 44.5436 -2.7275e-08 43.7185 0Z" fill="#F3E5D0"/>
<path d="M37.3642 15.9016H12.1963C11.7679 15.9016 11.357 15.7314 11.0541 15.4285C10.7512 15.1256 10.5811 14.7148 10.5811 14.2864C10.5811 13.858 10.7512 13.4472 11.0541 13.1443C11.357 12.8414 11.7679 12.6712 12.1963 12.6712H37.3642C37.7926 12.6712 38.2034 12.8414 38.5063 13.1443C38.8092 13.4472 38.9794 13.858 38.9794 14.2864C38.9794 14.7148 38.8092 15.1256 38.5063 15.4285C38.2034 15.7314 37.7926 15.9016 37.3642 15.9016Z" fill="#F3E5D0"/>
<path d="M37.3642 26.7395H12.1963C11.7679 26.7395 11.357 26.5694 11.0541 26.2665C10.7512 25.9636 10.5811 25.5527 10.5811 25.1244C10.5811 24.696 10.7512 24.2852 11.0541 23.9823C11.357 23.6794 11.7679 23.5092 12.1963 23.5092H37.3642C37.7926 23.5092 38.2034 23.6794 38.5063 23.9823C38.8092 24.2852 38.9794 24.696 38.9794 25.1244C38.9794 25.5527 38.8092 25.9636 38.5063 26.2665C38.2034 26.5694 37.7926 26.7395 37.3642 26.7395Z" fill="#F3E5D0"/>
<path d="M37.3642 37.5807H12.1963C11.7679 37.5807 11.357 37.4106 11.0541 37.1077C10.7512 36.8048 10.5811 36.3939 10.5811 35.9655C10.5811 35.5372 10.7512 35.1264 11.0541 34.8234C11.357 34.5205 11.7679 34.3503 12.1963 34.3503H37.3642C37.7926 34.3503 38.2034 34.5205 38.5063 34.8234C38.8092 35.1264 38.9794 35.5372 38.9794 35.9655C38.9794 36.3939 38.8092 36.8048 38.5063 37.1077C38.2034 37.4106 37.7926 37.5807 37.3642 37.5807Z" fill="#F3E5D0"/>
</g>
<defs>
<clipPath id="clip0_7_473">
<rect width="50" height="50" fill="white"/>
</clipPath>
</defs>
</svg>
