<svg width="50" height="50" viewBox="0 0 50 50" fill="none" xmlns="http://www.w3.org/2000/svg">
<path fill-rule="evenodd" clip-rule="evenodd" d="M19.4478 9.84848V10.9446C13.844 13.2426 9.92892 20.7903 10.071 27.3317L10.0709 30.9648C7.20227 34.6527 7.37106 40.1515 14.528 40.1515H19.4478C19.4478 41.6583 20.035 43.1035 21.0803 44.1692C22.1255 45.2348 23.5432 45.8333 25.0216 45.8333C26.4999 45.8333 27.9176 45.2348 28.9628 44.1692C30.0082 43.1035 30.5953 41.6583 30.5953 40.1515H35.5287C42.672 40.1515 42.7755 34.6413 39.9072 30.9533L39.987 27.3367C40.1314 20.7877 36.2089 13.2332 30.5953 10.9385V9.84848C30.5953 8.34159 30.0082 6.89638 28.9628 5.83084C27.9176 4.7653 26.4999 4.16667 25.0216 4.16667C23.5432 4.16667 22.1255 4.7653 21.0803 5.83084C20.035 6.89638 19.4478 8.34157 19.4478 9.84848ZM26.8795 9.84848C26.8795 9.88694 26.8785 9.9253 26.8762 9.96346C26.271 9.88757 25.6545 9.84848 25.0291 9.84848C24.3985 9.84848 23.777 9.88821 23.1672 9.96532C23.1649 9.92655 23.1637 9.88757 23.1637 9.84848C23.1637 9.34619 23.3595 8.86446 23.7078 8.50928C24.0562 8.15409 24.5289 7.95455 25.0216 7.95455C25.5143 7.95455 25.987 8.15409 26.3353 8.50928C26.6839 8.86446 26.8795 9.34619 26.8795 9.84848ZM23.1637 40.1515C23.1637 40.6538 23.3595 41.1356 23.7078 41.4908C24.0562 41.8458 24.5289 42.0454 25.0216 42.0454C25.5143 42.0454 25.987 41.8458 26.3353 41.4908C26.6839 41.1356 26.8795 40.6538 26.8795 40.1515H23.1637ZM35.5287 36.3635C37.116 36.3635 37.9722 34.4656 36.9393 33.2371C36.4374 32.6402 36.1699 31.8808 36.1872 31.1013L36.272 27.2517C36.4139 20.8212 31.3389 13.6364 25.0291 13.6364C18.7207 13.6364 13.6463 20.8188 13.786 27.2477L13.8697 31.1019C13.8866 31.8813 13.6192 32.6404 13.1174 33.2371C12.0844 34.4656 12.9407 36.3635 14.528 36.3635H35.5287Z" fill="#F3E5D0"/>
</svg>
