<svg width="40" height="40" viewBox="0 0 40 40" fill="none" xmlns="http://www.w3.org/2000/svg">
<path d="M18.3334 6.66665H12C10.1332 6.66665 9.19975 6.66665 8.48672 7.02997C7.8595 7.34955 7.34957 7.85948 7.03 8.48668C6.66669 9.19973 6.66669 10.1332 6.66669 12V28C6.66669 29.8668 6.66669 30.8003 7.03 31.5133C7.34957 32.1405 7.8595 32.6505 8.48672 32.97C9.19975 33.3333 10.1332 33.3333 12 33.3333H28C29.8669 33.3333 30.8004 33.3333 31.5134 32.97C32.1405 32.6505 32.6505 32.1405 32.97 31.5133C33.3334 30.8003 33.3334 29.8668 33.3334 28V20.8333M25.8334 9.16665L30.5474 13.8807M17.9379 17.0622L29.0184 5.98168C30.32 4.67993 32.4307 4.67993 33.7324 5.98168C35.0342 7.28343 35.0342 9.39398 33.7324 10.6957L22.2957 22.1323C21.0264 23.4018 20.3917 24.0365 19.6687 24.5412C19.027 24.9893 18.3349 25.3603 17.6067 25.647C16.7862 25.97 15.9063 26.1475 14.1466 26.5027L13.3334 26.6667L13.4124 26.113C13.6923 24.1542 13.8322 23.1747 14.1505 22.2602C14.4329 21.4487 14.8188 20.6771 15.2985 19.9643C15.839 19.161 16.5387 18.4613 17.9379 17.0622Z" stroke="#63F6FF" stroke-width="4" stroke-linecap="round" stroke-linejoin="round"/>
</svg>
