<svg width="50" height="50" viewBox="0 0 50 50" fill="none" xmlns="http://www.w3.org/2000/svg">
<path fill-rule="evenodd" clip-rule="evenodd" d="M33.3334 18.7501C33.3334 23.3524 29.6024 27.0834 25.0001 27.0834C20.3977 27.0834 16.6667 23.3524 16.6667 18.7501C16.6667 14.1477 20.3977 10.4167 25.0001 10.4167C29.6024 10.4167 33.3334 14.1477 33.3334 18.7501ZM29.1667 18.7501C29.1667 21.0513 27.3013 22.9167 25.0001 22.9167C22.6988 22.9167 20.8334 21.0513 20.8334 18.7501C20.8334 16.4489 22.6988 14.5834 25.0001 14.5834C27.3013 14.5834 29.1667 16.4489 29.1667 18.7501Z" fill="#F3E5D0"/>
<path fill-rule="evenodd" clip-rule="evenodd" d="M24.9999 2.08325C12.3434 2.08325 2.08325 12.3434 2.08325 24.9999C2.08325 37.6564 12.3434 47.9166 24.9999 47.9166C37.6564 47.9166 47.9166 37.6564 47.9166 24.9999C47.9166 12.3434 37.6564 2.08325 24.9999 2.08325ZM6.24992 24.9999C6.24992 29.3545 7.7344 33.3624 10.2249 36.5451C13.6509 32.0601 19.0546 29.1666 25.1343 29.1666C31.1349 29.1666 36.4774 31.9855 39.9093 36.3714C42.3187 33.2172 43.7499 29.2757 43.7499 24.9999C43.7499 14.6446 35.3553 6.24992 24.9999 6.24992C14.6446 6.24992 6.24992 14.6446 6.24992 24.9999ZM24.9999 43.7499C20.5203 43.7499 16.4075 42.1789 13.1826 39.5578C15.8197 35.7941 20.1896 33.3333 25.1343 33.3333C30.0174 33.3333 34.3401 35.7335 36.987 39.4185C33.7372 42.123 29.5585 43.7499 24.9999 43.7499Z" fill="#F3E5D0"/>
</svg>
