<svg width="40" height="40" viewBox="0 0 40 40" fill="none" xmlns="http://www.w3.org/2000/svg">
<path fill-rule="evenodd" clip-rule="evenodd" d="M30.286 1.66675C31.17 1.66675 32.0178 2.01793 32.643 2.64306L37.357 7.3571C37.9822 7.98223 38.3333 8.83006 38.3333 9.71413V33.3334C38.3333 36.0949 36.0948 38.3334 33.3333 38.3334H6.66666C3.90524 38.3334 1.66666 36.0949 1.66666 33.3334V6.66675C1.66666 3.90533 3.90524 1.66675 6.66666 1.66675H30.286ZM6.66666 5.00008C5.74619 5.00008 4.99999 5.74628 4.99999 6.66675V33.3334C4.99999 34.2539 5.74619 35.0001 6.66666 35.0001H8.33332V25.0001C8.33332 22.2386 10.5719 20.0001 13.3333 20.0001H26.6667C29.4282 20.0001 31.6667 22.2386 31.6667 25.0001V35.0001H33.3333C34.2538 35.0001 35 34.2539 35 33.3334V11.3808C35 10.4967 34.6488 9.6489 34.0237 9.02376L30.9763 5.9764C30.3512 5.35126 29.5033 5.00008 28.6193 5.00008H28.3333V8.33341C28.3333 11.0948 26.0948 13.3334 23.3333 13.3334H16.6667C13.9052 13.3334 11.6667 11.0948 11.6667 8.33341V5.00008H6.66666ZM28.3333 35.0001V25.0001C28.3333 24.0796 27.5872 23.3334 26.6667 23.3334H13.3333C12.4129 23.3334 11.6667 24.0796 11.6667 25.0001V35.0001H28.3333ZM15 5.00008H25V8.33341C25 9.25388 24.2538 10.0001 23.3333 10.0001H16.6667C15.7462 10.0001 15 9.25388 15 8.33341V5.00008Z" fill="#63F6FF"/>
</svg>
