<svg width="50" height="50" viewBox="0 0 50 50" fill="none" xmlns="http://www.w3.org/2000/svg">
<path d="M25 31.25C28.4518 31.25 31.25 28.4518 31.25 25C31.25 21.5482 28.4518 18.75 25 18.75C21.5482 18.75 18.75 21.5482 18.75 25C18.75 28.4518 21.5482 31.25 25 31.25Z" stroke="#F3E5D0" stroke-width="5"/>
<path d="M28.6779 4.48391C27.9121 4.16675 26.9415 4.16675 25 4.16675C23.0585 4.16675 22.0879 4.16675 21.3221 4.48391C20.3012 4.90681 19.49 5.71796 19.0672 6.73889C18.8741 7.20496 18.7985 7.74696 18.769 8.53756C18.7255 9.69941 18.1297 10.7749 17.1228 11.3562C16.1159 11.9375 14.8867 11.9158 13.8587 11.3725C13.1593 11.0028 12.6521 10.7972 12.152 10.7314C11.0563 10.5871 9.9483 10.884 9.07159 11.5567C8.41405 12.0613 7.92869 12.902 6.95798 14.5833C5.98728 16.2646 5.50192 17.1052 5.39373 17.927C5.2495 19.0226 5.5464 20.1306 6.21913 21.0074C6.52617 21.4076 6.95771 21.7438 7.62748 22.1647C8.61209 22.7834 9.24561 23.8374 9.24555 25.0001C9.24548 26.1628 8.61198 27.2165 7.62746 27.8351C6.95761 28.2561 6.526 28.5926 6.21892 28.9928C5.54619 29.8695 5.2493 30.9774 5.39355 32.073C5.50171 32.8947 5.98707 33.7355 6.95778 35.4167C7.9285 37.098 8.41386 37.9388 9.07138 38.4432C9.94809 39.1159 11.0561 39.4128 12.1518 39.2686C12.6519 39.2028 13.159 38.9972 13.8584 38.6276C14.8864 38.0842 16.1158 38.0626 17.1227 38.6438C18.1297 39.2253 18.7255 40.3007 18.769 41.4628C18.7986 42.2532 18.8741 42.7953 19.0672 43.2613C19.49 44.2822 20.3012 45.0934 21.3221 45.5163C22.0879 45.8334 23.0585 45.8334 25 45.8334C26.9415 45.8334 27.9121 45.8334 28.6779 45.5163C29.6988 45.0934 30.51 44.2822 30.9327 43.2613C31.1258 42.7953 31.2015 42.2532 31.231 41.4626C31.2744 40.3007 31.8702 39.2253 32.8771 38.6438C33.884 38.0624 35.1133 38.0842 36.1415 38.6276C36.8408 38.9972 37.3479 39.2026 37.8479 39.2684C38.9435 39.4128 40.0517 39.1159 40.9283 38.4432C41.5858 37.9386 42.0713 37.098 43.0419 35.4165C44.0127 33.7353 44.4981 32.8947 44.6063 32.073C44.7504 30.9774 44.4535 29.8692 43.7808 28.9926C43.4738 28.5924 43.0421 28.2559 42.3723 27.8351C41.3879 27.2165 40.7544 26.1626 40.7544 24.9999C40.7544 23.8372 41.3879 22.7836 42.3723 22.1651C43.0423 21.744 43.474 21.4078 43.781 21.0074C44.4538 20.1308 44.7506 19.0227 44.6065 17.9271C44.4983 17.1054 44.0129 16.2647 43.0421 14.5834C42.0715 12.9021 41.586 12.0614 40.9285 11.5569C40.0519 10.8842 38.9438 10.5873 37.8481 10.7315C37.3481 10.7974 36.841 11.0029 36.1415 11.3726C35.1135 11.9159 33.8842 11.9376 32.8773 11.3562C31.8702 10.7749 31.2744 9.69937 31.231 8.53746C31.2015 7.74691 31.1258 7.20494 30.9327 6.73889C30.51 5.71796 29.6988 4.90681 28.6779 4.48391Z" stroke="#F3E5D0" stroke-width="5"/>
</svg>
